<?xml version="1.0" encoding="utf-8"?>
<!-- Generator: Adobe Illustrator 27.5.0, SVG Export Plug-In . SVG Version: 6.00 Build 0)  -->
<svg version="1.1" id="Layer_1" xmlns="http://www.w3.org/2000/svg" xmlns:xlink="http://www.w3.org/1999/xlink" x="0px" y="0px"
	 viewBox="0 0 48 48" style="enable-background:new 0 0 48 48;" xml:space="preserve">
<path d="M28.7,7.5c-1.1,0.1-1.9-0.2-2.6-0.9c-0.8-0.7-1.2-1.6-1.3-2.5c-0.1-1.1,0.2-1.9,0.9-2.6c0.6-0.8,1.4-1.2,2.5-1.3
	c1.1-0.1,1.9,0.2,2.6,0.9s1.2,1.6,1.3,2.5c0.1,1.1-0.2,1.9-0.9,2.6C30.5,7,29.6,7.4,28.7,7.5z M19.7,18.6l4.8,4.5l1,12.3l-3,0.2
	l-0.8-10.1L14.5,20c-0.3-0.2-0.6-0.6-0.8-1c-0.2-0.5-0.4-1-0.3-1.4c0.1-0.4,0-0.9,0.3-1.4c0.2-0.5,0.4-0.8,0.6-1.1l5.5-6.4
	c0.2-0.3,0.5-0.5,1-0.8c0.5-0.2,1-0.4,1.4-0.5c0.5-0.1,1,0,1.6,0.3c0.5,0.2,0.8,0.4,1.2,0.7l4.1,3.6c0.9,0.8,2.1,1.6,3.3,2.1
	c1.2,0.5,2.7,0.8,4.2,0.6l0.2,3c-1.9,0.1-3.7-0.1-5.4-0.7s-3.2-1.3-4.6-2.5l-2.2-1.9L19.7,18.6z M9,23.3c2.7-0.2,5.1,0.5,7,2.3
	c2.1,1.7,3.1,4,3.4,6.7s-0.5,5.1-2.2,7.2c-1.7,2.1-4,3.1-6.7,3.4c-2.7,0.2-5.1-0.5-7-2.3c-2.1-1.7-3.1-4-3.4-6.7
	c-0.2-2.7,0.5-5.1,2.2-7.2C4.1,24.6,6.4,23.4,9,23.3z M10.3,40.3c2.1-0.2,3.7-0.9,4.9-2.5c1.3-1.5,1.8-3.4,1.7-5.3
	c-0.2-2.1-0.9-3.7-2.5-5.1c-1.5-1.3-3.2-1.9-5.3-1.7s-3.7,0.9-4.9,2.5c-1.3,1.5-1.8,3.4-1.7,5.3c0.2,2.1,0.9,3.7,2.5,5.1
	S8.2,40.5,10.3,40.3z M36.7,21.2c2.7-0.2,5.1,0.5,7,2.3c2.1,1.7,3.1,4,3.4,6.7c0.2,2.7-0.5,5.1-2.2,7.2c-1.7,2.1-4,3.1-6.7,3.4
	c-2.7,0.2-5.1-0.5-7-2.3c-2.1-1.7-3.1-4-3.4-6.7c-0.2-2.7,0.5-5.1,2.2-7.2C31.7,22.5,34,21.4,36.7,21.2z M38,38.3
	c2.1-0.2,3.7-0.9,4.9-2.5c1.3-1.5,1.8-3.4,1.7-5.3c-0.2-2.1-0.9-3.7-2.5-5.1c-1.5-1.3-3.2-1.9-5.3-1.7c-2.1,0.2-3.7,0.9-4.9,2.5
	c-1.3,1.5-1.8,3.4-1.7,5.3c0.2,2.1,0.9,3.7,2.5,5.1C34.1,37.9,35.9,38.5,38,38.3z"/>
<g>
	<g>
		<path d="M26,43.2l0.3-0.6c0.3-0.7,1.1-0.8,1.6-0.2l0.6,0.8"/>
		<g>
			<polyline points="29.8,41.7 29,42.3 31.6,42.4 			"/>
			<polyline points="25,42.5 24,43.1 26.6,43.2 			"/>
			<polyline points="31.4,41.4 30.6,42 33.2,42.2 			"/>
			<g>
				<g>
					<path d="M0.5,47.8l46.4-5.3l-2.1-2.4c-0.1-0.1-0.2-0.1-0.3,0l-1.7,1.4c0,0.1-0.1,0-0.2,0l-2.3-0.6c0,0-0.1,0-0.1,0l-1.8,1.2
						c-0.1,0-0.1,0-0.2,0l-1.6-1c-0.3-0.2-0.6-0.1-0.8,0.1l-0.3,0.2c-0.3,0.3-0.7,0.2-1-0.1c-0.4-0.5-1.5-0.1-1.7,0.3
						c-1.7,2.5-0.4,0.8,0.1,0.3c0,0-3.7-0.1-6.4,0.8l0,0c-0.9-0.7-3.4,1-4.4,1.2c0,0-0.1,0-0.1-0.1c-0.3-0.3-1.6-0.7-2.1-1.1
						c-0.1-0.1-0.7,0-0.7,0.1l-0.9,1.1c-0.1,0.1-0.2,0.1-0.3,0l-1-1c-0.3-0.3-0.7-0.2-1,0.1l-0.3,0.4c-0.2,0.3-0.5,0.3-0.8,0.2
						l-0.9-0.4c-0.4-0.2-1.4-0.6-1.5-0.2L12,43.5c-0.1,0.5-0.5,0.7-0.9,0.5l-1.8-0.7c0,0.9-2,0.4-2,0.5l-0.6,0.9
						c0,0.1-0.1,0.1-0.2,0.1l-3.1-0.7l-0.3,1.7"/>
					<path d="M21.6,44l0.7-1.1c0.2-0.5,0.8-0.4,1,0l1.1,2.3"/>
				</g>
				<polyline points="47.6,47.7 0.5,47.8 46.9,42.5 				"/>
			</g>
		</g>
	</g>
	<path d="M55.4,38.2"/>
</g>
</svg>
