<svg width="200" height="30" viewBox="0 0 7204 1148" fill="none" xmlns="http://www.w3.org/2000/svg">
<path d="M1653.11 962H1569.61V321.375H1345V248.133H1876.74V321.375H1653.11V962ZM2185.61 417.078C2196.35 417.078 2207.58 417.729 2219.3 419.031C2231.02 420.008 2241.43 421.473 2250.55 423.426L2240.29 498.621C2231.5 496.342 2221.74 494.552 2211 493.25C2200.25 491.948 2190.16 491.297 2180.72 491.297C2159.24 491.297 2138.89 495.691 2119.69 504.48C2100.81 512.944 2084.21 525.314 2069.88 541.59C2055.56 557.54 2044.33 576.909 2036.19 599.695C2028.05 622.156 2023.99 647.221 2023.99 674.891V962H1942.44V426.844H2009.83L2018.61 525.477H2022.03C2033.1 505.62 2046.45 487.553 2062.07 471.277C2077.7 454.676 2095.76 441.492 2116.27 431.727C2137.1 421.961 2160.22 417.078 2185.61 417.078ZM2521.82 418.055C2585.62 418.055 2632.98 432.378 2663.91 461.023C2694.83 489.669 2710.29 535.405 2710.29 598.23V962H2651.21L2635.59 882.898H2631.68C2616.71 902.43 2601.08 918.868 2584.81 932.215C2568.53 945.236 2549.65 955.164 2528.17 962C2507.01 968.51 2480.96 971.766 2450.04 971.766C2417.49 971.766 2388.52 966.069 2363.13 954.676C2338.06 943.283 2318.2 926.03 2303.56 902.918C2289.23 879.806 2282.07 850.509 2282.07 815.027C2282.07 761.642 2303.23 720.626 2345.55 691.98C2387.87 663.335 2452.32 647.71 2538.91 645.105L2631.19 641.199V608.484C2631.19 562.26 2621.26 529.871 2601.41 511.316C2581.55 492.762 2553.56 483.484 2517.42 483.484C2489.43 483.484 2462.74 487.553 2437.34 495.691C2411.95 503.829 2387.87 513.432 2365.08 524.5L2340.18 462.977C2364.27 450.607 2391.93 440.027 2423.18 431.238C2454.43 422.449 2487.31 418.055 2521.82 418.055ZM2630.22 698.328L2548.67 701.746C2481.94 704.35 2434.9 715.255 2407.56 734.461C2380.22 753.667 2366.54 780.848 2366.54 816.004C2366.54 846.603 2375.82 869.227 2394.38 883.875C2412.93 898.523 2437.51 905.848 2468.11 905.848C2515.63 905.848 2554.53 892.664 2584.81 866.297C2615.08 839.93 2630.22 800.379 2630.22 747.645V698.328ZM2928.34 426.844V962H2847.29V426.844H2928.34ZM2888.79 226.648C2902.14 226.648 2913.53 231.043 2922.97 239.832C2932.74 248.296 2937.62 261.642 2937.62 279.871C2937.62 297.775 2932.74 311.121 2922.97 319.91C2913.53 328.699 2902.14 333.094 2888.79 333.094C2874.79 333.094 2863.07 328.699 2853.63 319.91C2844.52 311.121 2839.96 297.775 2839.96 279.871C2839.96 261.642 2844.52 248.296 2853.63 239.832C2863.07 231.043 2874.79 226.648 2888.79 226.648ZM3151.76 962H3070.22V202.234H3151.76V962ZM3374.2 202.234V392.176C3374.2 413.986 3373.55 435.145 3372.25 455.652C3371.27 476.16 3370.46 492.111 3369.81 503.504H3374.2C3388.85 479.415 3410.01 459.07 3437.68 442.469C3465.35 425.867 3500.67 417.566 3543.63 417.566C3610.69 417.566 3664.08 440.841 3703.79 487.391C3743.83 533.615 3763.85 602.462 3763.85 693.934C3763.85 754.155 3754.73 804.936 3736.5 846.277C3718.28 887.618 3692.56 918.868 3659.36 940.027C3626.15 961.186 3586.93 971.766 3541.68 971.766C3499.36 971.766 3464.53 963.953 3437.19 948.328C3410.17 932.378 3389.34 913.009 3374.69 890.223H3368.34L3351.74 962H3293.15V202.234H3374.2ZM3530.45 485.438C3491.71 485.438 3460.95 493.087 3438.17 508.387C3415.38 523.361 3398.94 546.147 3388.85 576.746C3379.08 607.02 3374.2 645.431 3374.2 691.98V696.375C3374.2 763.758 3385.43 815.353 3407.89 851.16C3430.35 886.642 3471.21 904.383 3530.45 904.383C3580.25 904.383 3617.53 886.154 3642.27 849.695C3667.33 813.237 3679.86 761.154 3679.86 693.445C3679.86 624.435 3667.49 572.514 3642.75 537.684C3618.34 502.853 3580.91 485.438 3530.45 485.438ZM3956.99 962H3875.45V202.234H3956.99V962ZM4298.58 418.055C4362.38 418.055 4409.74 432.378 4440.67 461.023C4471.59 489.669 4487.05 535.405 4487.05 598.23V962H4427.97L4412.34 882.898H4408.44C4393.46 902.43 4377.84 918.868 4361.56 932.215C4345.29 945.236 4326.41 955.164 4304.92 962C4283.76 968.51 4257.72 971.766 4226.8 971.766C4194.25 971.766 4165.27 966.069 4139.88 954.676C4114.82 943.283 4094.96 926.03 4080.31 902.918C4065.99 879.806 4058.83 850.509 4058.83 815.027C4058.83 761.642 4079.99 720.626 4122.31 691.98C4164.62 663.335 4229.08 647.71 4315.67 645.105L4407.95 641.199V608.484C4407.95 562.26 4398.02 529.871 4378.17 511.316C4358.31 492.762 4330.31 483.484 4294.18 483.484C4266.19 483.484 4239.49 487.553 4214.1 495.691C4188.71 503.829 4164.62 513.432 4141.84 524.5L4116.93 462.977C4141.02 450.607 4168.69 440.027 4199.94 431.238C4231.19 422.449 4264.07 418.055 4298.58 418.055ZM4406.97 698.328L4325.43 701.746C4258.7 704.35 4211.66 715.255 4184.32 734.461C4156.97 753.667 4143.3 780.848 4143.3 816.004C4143.3 846.603 4152.58 869.227 4171.13 883.875C4189.69 898.523 4214.27 905.848 4244.86 905.848C4292.39 905.848 4331.29 892.664 4361.56 866.297C4391.84 839.93 4406.97 800.379 4406.97 747.645V698.328ZM4967.79 962H4577.66V908.289L4871.11 490.32H4596.21V426.844H4961.45V486.902L4671.9 899.012H4967.79V962ZM5268.85 417.078C5314.42 417.078 5353.48 427.169 5386.04 447.352C5418.59 467.534 5443.49 495.854 5460.74 532.312C5478 568.445 5486.62 610.763 5486.62 659.266V709.559H5116.99C5117.97 772.384 5133.59 820.236 5163.87 853.113C5194.14 885.991 5236.78 902.43 5291.8 902.43C5325.65 902.43 5355.6 899.337 5381.64 893.152C5407.68 886.967 5434.7 877.853 5462.7 865.809V937.098C5435.68 949.142 5408.82 957.931 5382.13 963.465C5355.76 968.999 5324.51 971.766 5288.38 971.766C5236.95 971.766 5192.03 961.349 5153.61 940.516C5115.53 919.357 5085.91 888.432 5064.75 847.742C5043.59 807.052 5033.01 757.247 5033.01 698.328C5033.01 640.711 5042.61 590.906 5061.82 548.914C5081.35 506.596 5108.69 474.044 5143.85 451.258C5179.33 428.471 5221 417.078 5268.85 417.078ZM5267.87 483.484C5224.58 483.484 5190.07 497.645 5164.36 525.965C5138.64 554.285 5123.34 593.836 5118.46 644.617H5401.66C5401.34 612.716 5396.29 584.721 5386.52 560.633C5377.08 536.219 5362.6 517.339 5343.07 503.992C5323.54 490.32 5298.47 483.484 5267.87 483.484Z" fill="white"/>
<g clip-path="url(#clip0_164_74)">
<path d="M634.724 1147.3C625.294 1147.3 616.102 1142.61 610.945 1134.17L237.128 522.023C231.889 513.444 231.992 502.75 237.396 494.27L300.706 394.93C305.739 387.031 314.629 382.23 324.184 382.23C324.279 382.23 324.378 382.23 324.473 382.23C334.138 382.326 343.05 387.327 347.963 395.407L633.371 864.78L690.559 865.213L360.995 327.74C355.731 319.156 355.826 308.442 361.239 299.942L422.741 203.437C427.832 195.446 436.883 190.633 446.549 190.737C456.232 190.849 465.147 195.874 470.04 203.982L870.14 866.518L929.18 866.95L483.423 133.528C478.167 124.88 478.332 114.106 483.856 105.615L544.426 12.4925C549.538 4.63729 558.498 -0.0790705 568.044 0.00100356C577.615 0.0930887 586.456 4.98962 591.403 12.941L900.161 509.024C908.045 521.691 903.854 538.162 890.805 545.813C877.752 553.465 860.78 549.397 852.896 536.733L567.256 77.7889L539.546 120.392L1001.52 880.495C1006.57 888.811 1006.63 899.12 1001.66 907.484C996.73 915.787 987.605 920.9 977.737 920.9C977.666 920.9 977.596 920.9 977.526 920.9L854.043 919.991C844.319 919.919 835.35 914.887 830.433 906.747L445.588 269.47L417.015 314.308L763.076 878.677C768.175 886.989 768.258 897.322 763.299 905.714C758.373 914.042 749.235 919.175 739.355 919.175C739.28 919.175 739.21 919.175 739.136 919.175L617.327 918.25C607.637 918.178 598.693 913.177 593.767 905.074L323.639 460.835L293.16 508.663L658.454 1106.85C666.226 1119.58 661.895 1136.02 648.78 1143.56C644.366 1146.1 639.514 1147.31 634.728 1147.31L634.724 1147.3Z" fill="#66BE55"/>
<path d="M46.7425 920.957C38.3101 920.957 30.3314 917.214 25.092 910.788L5.96224 887.326C-3.50159 875.723 -1.47599 858.872 10.4796 849.687C22.4394 840.507 39.7993 842.469 49.2632 854.071L60.0141 867.256L117.536 866.775L75.5259 796.11C70.464 787.594 70.6125 777.068 75.9178 768.688L133.006 678.545C138.031 670.614 146.938 665.781 156.53 665.781H156.591C166.208 665.801 175.119 670.678 180.115 678.649L305.335 878.414C313.26 891.057 309.122 907.541 296.098 915.232C283.07 922.923 266.086 918.907 258.16 906.268L156.41 743.942L131.575 783.158L189.022 879.787C193.931 888.043 193.948 898.204 189.075 906.476C184.199 914.747 175.164 919.888 165.346 919.968L46.9859 920.957C46.9075 920.957 46.825 920.957 46.7466 920.957H46.7425Z" fill="#66BE55"/>
<path d="M524.607 1147.66C515.011 1147.66 505.687 1142.8 500.592 1134.12L472.044 1085.51C464.494 1072.65 469.115 1056.29 482.362 1048.96C495.609 1041.63 512.47 1046.11 520.019 1058.97L548.567 1107.59C556.117 1120.45 551.497 1136.81 538.25 1144.14C533.934 1146.52 529.24 1147.66 524.607 1147.66Z" fill="#66BE55"/>
</g>
<defs>
<clipPath id="clip0_164_74">
<rect width="1005.35" height="1147.66" fill="white"/>
</clipPath>
</defs>
</svg>
