<svg width="200" height="30" viewBox="0 0 7204 1148" fill="none" xmlns="http://www.w3.org/2000/svg">
<path d="M1653.89 962H1570.4V321.375H1345.79V248.133H1877.53V321.375H1653.89V962ZM2186.39 417.078C2197.14 417.078 2208.37 417.729 2220.08 419.031C2231.8 420.008 2242.22 421.473 2251.33 423.426L2241.08 498.621C2232.29 496.342 2222.53 494.552 2211.78 493.25C2201.04 491.948 2190.95 491.297 2181.51 491.297C2160.03 491.297 2139.68 495.691 2120.48 504.48C2101.6 512.944 2084.99 525.314 2070.67 541.59C2056.35 557.54 2045.12 576.909 2036.98 599.695C2028.84 622.156 2024.77 647.221 2024.77 674.891V962H1943.23V426.844H2010.61L2019.4 525.477H2022.82C2033.89 505.62 2047.23 487.553 2062.86 471.277C2078.48 454.676 2096.55 441.492 2117.06 431.727C2137.89 421.961 2161 417.078 2186.39 417.078ZM2522.6 418.055C2586.41 418.055 2633.77 432.378 2664.69 461.023C2695.62 489.669 2711.08 535.405 2711.08 598.23V962H2652L2636.37 882.898H2632.47C2617.49 902.43 2601.87 918.868 2585.59 932.215C2569.32 945.236 2550.44 955.164 2528.95 962C2507.79 968.51 2481.75 971.766 2450.83 971.766C2418.28 971.766 2389.3 966.069 2363.91 954.676C2338.85 943.283 2318.99 926.03 2304.34 902.918C2290.02 879.806 2282.86 850.509 2282.86 815.027C2282.86 761.642 2304.02 720.626 2346.33 691.98C2388.65 663.335 2453.11 647.71 2539.69 645.105L2631.98 641.199V608.484C2631.98 562.26 2622.05 529.871 2602.19 511.316C2582.34 492.762 2554.34 483.484 2518.21 483.484C2490.22 483.484 2463.52 487.553 2438.13 495.691C2412.74 503.829 2388.65 513.432 2365.87 524.5L2340.96 462.977C2365.05 450.607 2392.72 440.027 2423.97 431.238C2455.22 422.449 2488.1 418.055 2522.6 418.055ZM2631 698.328L2549.46 701.746C2482.73 704.35 2435.69 715.255 2408.35 734.461C2381 753.667 2367.33 780.848 2367.33 816.004C2367.33 846.603 2376.61 869.227 2395.16 883.875C2413.72 898.523 2438.29 905.848 2468.89 905.848C2516.42 905.848 2555.32 892.664 2585.59 866.297C2615.87 839.93 2631 800.379 2631 747.645V698.328ZM2929.13 426.844V962H2848.07V426.844H2929.13ZM2889.58 226.648C2902.92 226.648 2914.32 231.043 2923.76 239.832C2933.52 248.296 2938.41 261.642 2938.41 279.871C2938.41 297.775 2933.52 311.121 2923.76 319.91C2914.32 328.699 2902.92 333.094 2889.58 333.094C2875.58 333.094 2863.86 328.699 2854.42 319.91C2845.31 311.121 2840.75 297.775 2840.75 279.871C2840.75 261.642 2845.31 248.296 2854.42 239.832C2863.86 231.043 2875.58 226.648 2889.58 226.648ZM3152.55 962H3071V202.234H3152.55V962ZM3374.99 202.234V392.176C3374.99 413.986 3374.34 435.145 3373.03 455.652C3372.06 476.16 3371.24 492.111 3370.59 503.504H3374.99C3389.64 479.415 3410.79 459.07 3438.46 442.469C3466.13 425.867 3501.45 417.566 3544.42 417.566C3611.48 417.566 3664.86 440.841 3704.58 487.391C3744.62 533.615 3764.64 602.462 3764.64 693.934C3764.64 754.155 3755.52 804.936 3737.29 846.277C3719.06 887.618 3693.35 918.868 3660.14 940.027C3626.94 961.186 3587.72 971.766 3542.47 971.766C3500.15 971.766 3465.32 963.953 3437.98 948.328C3410.96 932.378 3390.12 913.009 3375.48 890.223H3369.13L3352.53 962H3293.93V202.234H3374.99ZM3531.24 485.438C3492.5 485.438 3461.74 493.087 3438.95 508.387C3416.17 523.361 3399.73 546.147 3389.64 576.746C3379.87 607.02 3374.99 645.431 3374.99 691.98V696.375C3374.99 763.758 3386.22 815.353 3408.68 851.16C3431.14 886.642 3471.99 904.383 3531.24 904.383C3581.04 904.383 3618.31 886.154 3643.05 849.695C3668.12 813.237 3680.65 761.154 3680.65 693.445C3680.65 624.435 3668.28 572.514 3643.54 537.684C3619.13 502.853 3581.69 485.438 3531.24 485.438ZM3957.78 962H3876.24V202.234H3957.78V962ZM4299.36 418.055C4363.16 418.055 4410.53 432.378 4441.45 461.023C4472.38 489.669 4487.84 535.405 4487.84 598.23V962H4428.76L4413.13 882.898H4409.23C4394.25 902.43 4378.63 918.868 4362.35 932.215C4346.07 945.236 4327.19 955.164 4305.71 962C4284.55 968.51 4258.51 971.766 4227.58 971.766C4195.03 971.766 4166.06 966.069 4140.67 954.676C4115.61 943.283 4095.75 926.03 4081.1 902.918C4066.78 879.806 4059.62 850.509 4059.62 815.027C4059.62 761.642 4080.78 720.626 4123.09 691.98C4165.41 663.335 4229.86 647.71 4316.45 645.105L4408.74 641.199V608.484C4408.74 562.26 4398.81 529.871 4378.95 511.316C4359.1 492.762 4331.1 483.484 4294.97 483.484C4266.97 483.484 4240.28 487.553 4214.89 495.691C4189.5 503.829 4165.41 513.432 4142.62 524.5L4117.72 462.977C4141.81 450.607 4169.48 440.027 4200.73 431.238C4231.98 422.449 4264.86 418.055 4299.36 418.055ZM4407.76 698.328L4326.22 701.746C4259.49 704.35 4212.45 715.255 4185.1 734.461C4157.76 753.667 4144.09 780.848 4144.09 816.004C4144.09 846.603 4153.37 869.227 4171.92 883.875C4190.48 898.523 4215.05 905.848 4245.65 905.848C4293.18 905.848 4332.08 892.664 4362.35 866.297C4392.62 839.93 4407.76 800.379 4407.76 747.645V698.328ZM4968.58 962H4578.44V908.289L4871.9 490.32H4597V426.844H4962.23V486.902L4672.68 899.012H4968.58V962ZM5269.64 417.078C5315.21 417.078 5354.27 427.169 5386.82 447.352C5419.38 467.534 5444.28 495.854 5461.53 532.312C5478.78 568.445 5487.41 610.763 5487.41 659.266V709.559H5117.78C5118.76 772.384 5134.38 820.236 5164.66 853.113C5194.93 885.991 5237.57 902.43 5292.58 902.43C5326.44 902.43 5356.39 899.337 5382.43 893.152C5408.47 886.967 5435.49 877.853 5463.48 865.809V937.098C5436.47 949.142 5409.61 957.931 5382.92 963.465C5356.55 968.999 5325.3 971.766 5289.17 971.766C5237.73 971.766 5192.81 961.349 5154.4 940.516C5116.32 919.357 5086.69 888.432 5065.53 847.742C5044.38 807.052 5033.8 757.247 5033.8 698.328C5033.8 640.711 5043.4 590.906 5062.6 548.914C5082.14 506.596 5109.48 474.044 5144.64 451.258C5180.12 428.471 5221.78 417.078 5269.64 417.078ZM5268.66 483.484C5225.36 483.484 5190.86 497.645 5165.14 525.965C5139.43 554.285 5124.13 593.836 5119.25 644.617H5402.45C5402.12 612.716 5397.08 584.721 5387.31 560.633C5377.87 536.219 5363.39 517.339 5343.85 503.992C5324.32 490.32 5299.26 483.484 5268.66 483.484Z" fill="#173012"/>
<g clip-path="url(#clip0_163_71)">
<path d="M635.511 1147.3C626.081 1147.3 616.889 1142.61 611.732 1134.17L237.915 522.023C232.676 513.444 232.779 502.75 238.183 494.27L301.493 394.93C306.526 387.031 315.416 382.23 324.971 382.23C325.066 382.23 325.165 382.23 325.26 382.23C334.926 382.326 343.837 387.327 348.75 395.407L634.158 864.78L691.346 865.213L361.782 327.74C356.518 319.156 356.613 308.442 362.026 299.942L423.528 203.437C428.619 195.446 437.67 190.633 447.336 190.737C457.019 190.849 465.934 195.874 470.827 203.982L870.927 866.518L929.967 866.95L484.21 133.528C478.954 124.88 479.119 114.106 484.643 105.615L545.213 12.4925C550.325 4.63729 559.285 -0.0790705 568.832 0.00100356C578.403 0.0930887 587.243 4.98962 592.19 12.941L900.948 509.024C908.832 521.691 904.641 538.162 891.592 545.813C878.539 553.465 861.567 549.397 853.683 536.733L568.044 77.7889L540.333 120.392L1002.31 880.495C1007.36 888.811 1007.41 899.12 1002.45 907.484C997.517 915.787 988.392 920.9 978.524 920.9C978.454 920.9 978.383 920.9 978.313 920.9L854.83 919.991C845.106 919.919 836.137 914.887 831.22 906.747L446.375 269.47L417.802 314.308L763.863 878.677C768.962 886.989 769.045 897.322 764.086 905.714C759.16 914.042 750.022 919.175 740.142 919.175C740.067 919.175 739.997 919.175 739.923 919.175L618.114 918.25C608.424 918.178 599.48 913.177 594.554 905.074L324.426 460.835L293.947 508.663L659.241 1106.85C667.014 1119.58 662.682 1136.02 649.567 1143.56C645.153 1146.1 640.301 1147.31 635.516 1147.31L635.511 1147.3Z" fill="#66BE55"/>
<path d="M47.5296 920.957C39.0972 920.957 31.1185 917.214 25.8792 910.788L6.74935 887.326C-2.71448 875.723 -0.688877 858.872 11.2667 849.687C23.2265 840.507 40.5865 842.469 50.0503 854.071L60.8013 867.256L118.323 866.775L76.313 796.11C71.2511 787.594 71.3996 777.068 76.7049 768.688L133.793 678.545C138.818 670.614 147.725 665.781 157.317 665.781H157.379C166.995 665.801 175.906 670.678 180.902 678.649L306.122 878.414C314.047 891.057 309.91 907.541 296.885 915.232C283.857 922.923 266.873 918.907 258.948 906.268L157.197 743.942L132.362 783.158L189.809 879.787C194.718 888.043 194.735 898.204 189.862 906.476C184.986 914.747 175.951 919.888 166.133 919.968L47.773 920.957C47.6946 920.957 47.6121 920.957 47.5337 920.957H47.5296Z" fill="#66BE55"/>
<path d="M525.394 1147.66C515.798 1147.66 506.474 1142.8 501.379 1134.12L472.831 1085.51C465.282 1072.65 469.902 1056.29 483.149 1048.96C496.396 1041.63 513.257 1046.11 520.806 1058.97L549.355 1107.59C556.904 1120.45 552.284 1136.81 539.037 1144.14C534.722 1146.52 530.027 1147.66 525.394 1147.66Z" fill="#66BE55"/>
</g>
<defs>
<clipPath id="clip0_163_71">
<rect width="1005.35" height="1147.66" fill="white" transform="translate(0.787109)"/>
</clipPath>
</defs>
</svg>
